# xmcd CD database file
#
# Track frame offsets:
#	150
#	21042
#	41965
#	56497
#	80250
#	95380
#	118292
#	138515
#	159797
#
# Disc length: 2310 seconds
#
# Revision: 0
# Processed by: cddbd v1.5.2PL0 Copyright (c) Steve Scherf et al.
# Submitted via: CDex 1.51
#
DISCID=6e090409
DTITLE=Louis Armstrong - Satch Plays Fats: The Music of Fats Waller
DYEAR=2000
DGENRE=Jazz
TTITLE0=Honeysuckle Rose
TTITLE1=Blue Turning Grey over You
TTITLE2=I'm Crazy 'Bout My Baby (And My Baby's Crazy 'Bout Me)
TTITLE3=Squeeze Me
TTITLE4=Keepin' Out of Mischief Now
TTITLE5=All That Meat and No Potatoes
TTITLE6=I've Got a Feeling I'm Falling
TTITLE7=Black and Blue
TTITLE8=Ain't Misbehavin'
EXTD=YEAR: 2000
EXTT0=
EXTT1=
EXTT2=
EXTT3=
EXTT4=
EXTT5=
EXTT6=
EXTT7=
EXTT8=
PLAYORDER=
